<mxfile host="app.diagrams.net" agent="Mozilla/5.0 (Macintosh; Intel Mac OS X 10_15_7) AppleWebKit/537.36 (KHTML, like Gecko) Chrome/134.0.0.0 Safari/537.36" version="26.1.1">
  <diagram name="Page-1" id="2YBvvXClWsGukQMizWep">
    <mxGraphModel dx="2284" dy="819" grid="1" gridSize="10" guides="1" tooltips="1" connect="1" arrows="1" fold="1" page="1" pageScale="1" pageWidth="850" pageHeight="1100" math="0" shadow="0">
      <root>
        <mxCell id="0" />
        <mxCell id="1" parent="0" />
        <mxCell id="RQpd7-KfGWgF_9-NO3Ts-11" value=": BookingHandler" style="shape=umlLifeline;perimeter=lifelinePerimeter;whiteSpace=wrap;html=1;container=1;dropTarget=0;collapsible=0;recursiveResize=0;outlineConnect=0;portConstraint=eastwest;newEdgeStyle={&quot;curved&quot;:0,&quot;rounded&quot;:0};" vertex="1" parent="1">
          <mxGeometry x="40" y="80" width="100" height="580" as="geometry" />
        </mxCell>
        <mxCell id="RQpd7-KfGWgF_9-NO3Ts-13" value="Book a Flight Ticket" style="shape=umlFrame;whiteSpace=wrap;html=1;pointerEvents=0;width=140;height=20;" vertex="1" parent="1">
          <mxGeometry x="-210" y="50" width="1100" height="610" as="geometry" />
        </mxCell>
        <mxCell id="RQpd7-KfGWgF_9-NO3Ts-14" value="" style="shape=umlLifeline;perimeter=lifelinePerimeter;whiteSpace=wrap;html=1;container=1;dropTarget=0;collapsible=0;recursiveResize=0;outlineConnect=0;portConstraint=eastwest;newEdgeStyle={&quot;curved&quot;:0,&quot;rounded&quot;:0};participant=umlActor;" vertex="1" parent="1">
          <mxGeometry x="-170" y="110" width="20" height="540" as="geometry" />
        </mxCell>
        <mxCell id="RQpd7-KfGWgF_9-NO3Ts-20" value="" style="html=1;points=[[0,0,0,0,5],[0,1,0,0,-5],[1,0,0,0,5],[1,1,0,0,-5]];perimeter=orthogonalPerimeter;outlineConnect=0;targetShapes=umlLifeline;portConstraint=eastwest;newEdgeStyle={&quot;curved&quot;:0,&quot;rounded&quot;:0};" vertex="1" parent="RQpd7-KfGWgF_9-NO3Ts-14">
          <mxGeometry x="5" y="60" width="10" height="490" as="geometry" />
        </mxCell>
        <mxCell id="RQpd7-KfGWgF_9-NO3Ts-16" value="Customer" style="text;html=1;align=center;verticalAlign=middle;whiteSpace=wrap;rounded=0;" vertex="1" parent="1">
          <mxGeometry x="-190" y="85" width="60" height="30" as="geometry" />
        </mxCell>
        <mxCell id="RQpd7-KfGWgF_9-NO3Ts-17" value=": Airline" style="shape=umlLifeline;perimeter=lifelinePerimeter;whiteSpace=wrap;html=1;container=1;dropTarget=0;collapsible=0;recursiveResize=0;outlineConnect=0;portConstraint=eastwest;newEdgeStyle={&quot;curved&quot;:0,&quot;rounded&quot;:0};" vertex="1" parent="1">
          <mxGeometry x="230" y="80" width="100" height="580" as="geometry" />
        </mxCell>
        <mxCell id="RQpd7-KfGWgF_9-NO3Ts-23" value="" style="html=1;points=[[0,0,0,0,5],[0,1,0,0,-5],[1,0,0,0,5],[1,1,0,0,-5]];perimeter=orthogonalPerimeter;outlineConnect=0;targetShapes=umlLifeline;portConstraint=eastwest;newEdgeStyle={&quot;curved&quot;:0,&quot;rounded&quot;:0};" vertex="1" parent="RQpd7-KfGWgF_9-NO3Ts-17">
          <mxGeometry x="45" y="130" width="10" height="80" as="geometry" />
        </mxCell>
        <mxCell id="RQpd7-KfGWgF_9-NO3Ts-21" value="Search a flight (time, depart., arrival)" style="html=1;verticalAlign=bottom;startArrow=oval;startFill=1;endArrow=block;startSize=8;curved=0;rounded=0;" edge="1" parent="1" target="RQpd7-KfGWgF_9-NO3Ts-22">
          <mxGeometry x="0.0043" width="60" relative="1" as="geometry">
            <mxPoint x="-150" y="190" as="sourcePoint" />
            <mxPoint x="-90" y="190" as="targetPoint" />
            <mxPoint as="offset" />
          </mxGeometry>
        </mxCell>
        <mxCell id="RQpd7-KfGWgF_9-NO3Ts-22" value="" style="html=1;points=[[0,0,0,0,5],[0,1,0,0,-5],[1,0,0,0,5],[1,1,0,0,-5]];perimeter=orthogonalPerimeter;outlineConnect=0;targetShapes=umlLifeline;portConstraint=eastwest;newEdgeStyle={&quot;curved&quot;:0,&quot;rounded&quot;:0};" vertex="1" parent="1">
          <mxGeometry x="85" y="190" width="10" height="80" as="geometry" />
        </mxCell>
        <mxCell id="RQpd7-KfGWgF_9-NO3Ts-24" value="Get Flights (time, depart., arrival)&amp;nbsp;" style="html=1;verticalAlign=bottom;startArrow=oval;startFill=1;endArrow=block;startSize=8;curved=0;rounded=0;entryX=0;entryY=0;entryDx=0;entryDy=5;entryPerimeter=0;" edge="1" parent="1" source="RQpd7-KfGWgF_9-NO3Ts-22" target="RQpd7-KfGWgF_9-NO3Ts-23">
          <mxGeometry width="60" relative="1" as="geometry">
            <mxPoint x="390" y="350" as="sourcePoint" />
            <mxPoint x="450" y="350" as="targetPoint" />
          </mxGeometry>
        </mxCell>
        <mxCell id="RQpd7-KfGWgF_9-NO3Ts-25" value=": Database" style="shape=umlLifeline;perimeter=lifelinePerimeter;whiteSpace=wrap;html=1;container=1;dropTarget=0;collapsible=0;recursiveResize=0;outlineConnect=0;portConstraint=eastwest;newEdgeStyle={&quot;curved&quot;:0,&quot;rounded&quot;:0};" vertex="1" parent="1">
          <mxGeometry x="560" y="85" width="100" height="580" as="geometry" />
        </mxCell>
        <mxCell id="RQpd7-KfGWgF_9-NO3Ts-26" value="" style="html=1;points=[[0,0,0,0,5],[0,1,0,0,-5],[1,0,0,0,5],[1,1,0,0,-5]];perimeter=orthogonalPerimeter;outlineConnect=0;targetShapes=umlLifeline;portConstraint=eastwest;newEdgeStyle={&quot;curved&quot;:0,&quot;rounded&quot;:0};" vertex="1" parent="RQpd7-KfGWgF_9-NO3Ts-25">
          <mxGeometry x="45" y="130" width="10" height="110" as="geometry" />
        </mxCell>
        <mxCell id="RQpd7-KfGWgF_9-NO3Ts-27" value="Retrieve flight data (time, depart, arrival)" style="html=1;verticalAlign=bottom;startArrow=oval;startFill=1;endArrow=block;startSize=8;curved=0;rounded=0;" edge="1" parent="1" target="RQpd7-KfGWgF_9-NO3Ts-26">
          <mxGeometry width="60" relative="1" as="geometry">
            <mxPoint x="290" y="220" as="sourcePoint" />
            <mxPoint x="455" y="220" as="targetPoint" />
          </mxGeometry>
        </mxCell>
        <mxCell id="RQpd7-KfGWgF_9-NO3Ts-29" value="Show list of Flights" style="html=1;verticalAlign=bottom;endArrow=open;dashed=1;endSize=8;curved=0;rounded=0;" edge="1" parent="1" source="RQpd7-KfGWgF_9-NO3Ts-26" target="RQpd7-KfGWgF_9-NO3Ts-20">
          <mxGeometry relative="1" as="geometry">
            <mxPoint x="460" y="350" as="sourcePoint" />
            <mxPoint x="380" y="350" as="targetPoint" />
            <Array as="points">
              <mxPoint x="430" y="320" />
            </Array>
          </mxGeometry>
        </mxCell>
        <mxCell id="RQpd7-KfGWgF_9-NO3Ts-30" value="" style="html=1;points=[[0,0,0,0,5],[0,1,0,0,-5],[1,0,0,0,5],[1,1,0,0,-5]];perimeter=orthogonalPerimeter;outlineConnect=0;targetShapes=umlLifeline;portConstraint=eastwest;newEdgeStyle={&quot;curved&quot;:0,&quot;rounded&quot;:0};" vertex="1" parent="1">
          <mxGeometry x="85" y="370" width="10" height="290" as="geometry" />
        </mxCell>
        <mxCell id="RQpd7-KfGWgF_9-NO3Ts-38" value="Choose a Flight" style="html=1;verticalAlign=bottom;startArrow=oval;startFill=1;endArrow=block;startSize=8;curved=0;rounded=0;" edge="1" parent="1" target="RQpd7-KfGWgF_9-NO3Ts-30">
          <mxGeometry x="0.0041" width="60" relative="1" as="geometry">
            <mxPoint x="-160" y="370" as="sourcePoint" />
            <mxPoint x="-100" y="370" as="targetPoint" />
            <mxPoint as="offset" />
          </mxGeometry>
        </mxCell>
        <mxCell id="RQpd7-KfGWgF_9-NO3Ts-39" value="Add the flight into the cart" style="html=1;verticalAlign=bottom;startArrow=oval;startFill=1;endArrow=block;startSize=8;curved=0;rounded=0;" edge="1" parent="1" target="RQpd7-KfGWgF_9-NO3Ts-30">
          <mxGeometry width="60" relative="1" as="geometry">
            <mxPoint x="-150" y="430" as="sourcePoint" />
            <mxPoint x="-90" y="430" as="targetPoint" />
            <Array as="points">
              <mxPoint x="-130" y="430" />
            </Array>
          </mxGeometry>
        </mxCell>
        <mxCell id="RQpd7-KfGWgF_9-NO3Ts-40" value=": Cart" style="shape=umlLifeline;perimeter=lifelinePerimeter;whiteSpace=wrap;html=1;container=1;dropTarget=0;collapsible=0;recursiveResize=0;outlineConnect=0;portConstraint=eastwest;newEdgeStyle={&quot;curved&quot;:0,&quot;rounded&quot;:0};" vertex="1" parent="1">
          <mxGeometry x="760" y="85" width="100" height="580" as="geometry" />
        </mxCell>
        <mxCell id="RQpd7-KfGWgF_9-NO3Ts-41" value="" style="html=1;points=[[0,0,0,0,5],[0,1,0,0,-5],[1,0,0,0,5],[1,1,0,0,-5]];perimeter=orthogonalPerimeter;outlineConnect=0;targetShapes=umlLifeline;portConstraint=eastwest;newEdgeStyle={&quot;curved&quot;:0,&quot;rounded&quot;:0};" vertex="1" parent="RQpd7-KfGWgF_9-NO3Ts-40">
          <mxGeometry x="45" y="365" width="10" height="60" as="geometry" />
        </mxCell>
        <mxCell id="RQpd7-KfGWgF_9-NO3Ts-49" value="" style="html=1;points=[[0,0,0,0,5],[0,1,0,0,-5],[1,0,0,0,5],[1,1,0,0,-5]];perimeter=orthogonalPerimeter;outlineConnect=0;targetShapes=umlLifeline;portConstraint=eastwest;newEdgeStyle={&quot;curved&quot;:0,&quot;rounded&quot;:0};" vertex="1" parent="RQpd7-KfGWgF_9-NO3Ts-40">
          <mxGeometry x="45" y="515" width="10" height="60" as="geometry" />
        </mxCell>
        <mxCell id="RQpd7-KfGWgF_9-NO3Ts-42" value="Add Flight(flight_id)" style="html=1;verticalAlign=bottom;startArrow=oval;startFill=1;endArrow=block;startSize=8;curved=0;rounded=0;" edge="1" parent="1" target="RQpd7-KfGWgF_9-NO3Ts-40">
          <mxGeometry width="60" relative="1" as="geometry">
            <mxPoint x="95" y="450" as="sourcePoint" />
            <mxPoint x="330" y="450" as="targetPoint" />
            <Array as="points">
              <mxPoint x="115" y="450" />
            </Array>
          </mxGeometry>
        </mxCell>
        <mxCell id="RQpd7-KfGWgF_9-NO3Ts-46" value="Checkout the Cart" style="html=1;verticalAlign=bottom;startArrow=oval;startFill=1;endArrow=block;startSize=8;curved=0;rounded=0;" edge="1" parent="1" target="RQpd7-KfGWgF_9-NO3Ts-30">
          <mxGeometry width="60" relative="1" as="geometry">
            <mxPoint x="-150" y="510" as="sourcePoint" />
            <mxPoint x="-90" y="510" as="targetPoint" />
          </mxGeometry>
        </mxCell>
        <mxCell id="RQpd7-KfGWgF_9-NO3Ts-47" value="Confirm and Book a Ticket" style="html=1;verticalAlign=bottom;startArrow=oval;startFill=1;endArrow=block;startSize=8;curved=0;rounded=0;" edge="1" parent="1">
          <mxGeometry x="0.0043" width="60" relative="1" as="geometry">
            <mxPoint x="-150" y="580" as="sourcePoint" />
            <mxPoint x="85" y="580" as="targetPoint" />
            <mxPoint as="offset" />
          </mxGeometry>
        </mxCell>
        <mxCell id="RQpd7-KfGWgF_9-NO3Ts-48" value="Book a ticket" style="html=1;verticalAlign=bottom;startArrow=oval;startFill=1;endArrow=block;startSize=8;curved=0;rounded=0;" edge="1" parent="1" target="RQpd7-KfGWgF_9-NO3Ts-40">
          <mxGeometry x="0.0042" width="60" relative="1" as="geometry">
            <mxPoint x="100" y="600" as="sourcePoint" />
            <mxPoint x="335" y="600" as="targetPoint" />
            <mxPoint as="offset" />
          </mxGeometry>
        </mxCell>
        <mxCell id="RQpd7-KfGWgF_9-NO3Ts-51" value="return the ticket details" style="html=1;verticalAlign=bottom;endArrow=open;dashed=1;endSize=8;curved=0;rounded=0;" edge="1" parent="1" target="RQpd7-KfGWgF_9-NO3Ts-20">
          <mxGeometry relative="1" as="geometry">
            <mxPoint x="80" y="640" as="sourcePoint" />
            <mxPoint x="720" y="640" as="targetPoint" />
            <Array as="points" />
          </mxGeometry>
        </mxCell>
      </root>
    </mxGraphModel>
  </diagram>
</mxfile>
